<svg width="19" height="19" viewBox="0 0 19 19" fill="none" xmlns="http://www.w3.org/2000/svg">
<path d="M18.4828 0.637312C18.405 0.449049 18.2731 0.28805 18.1039 0.174628C17.9347 0.0612051 17.7357 0.000440689 17.532 0H9.28198C9.00848 0 8.74618 0.108649 8.55278 0.302046C8.35938 0.495443 8.25073 0.757746 8.25073 1.03125C8.25073 1.30475 8.35938 1.56706 8.55278 1.76045C8.74618 1.95385 9.00848 2.0625 9.28198 2.0625H15.0364L0.289484 16.8094C0.101634 17.0039 -0.00231064 17.2644 3.8984e-05 17.5348C0.0023886 17.8051 0.110844 18.0638 0.302046 18.255C0.493248 18.4462 0.751899 18.5547 1.02229 18.557C1.29268 18.5594 1.55318 18.4554 1.74767 18.2676L16.4945 3.52069V9.27506C16.4945 9.54857 16.6032 9.81087 16.7966 10.0043C16.99 10.1977 17.2523 10.3063 17.5258 10.3063C17.7993 10.3063 18.0616 10.1977 18.255 10.0043C18.4484 9.81087 18.557 9.54857 18.557 9.27506V1.02506C18.5562 0.891966 18.5296 0.760293 18.4787 0.637312H18.4828Z" fill="#6495ED"/>
</svg>
