<svg width="1920" height="212" viewBox="0 0 1920 212" fill="none" xmlns="http://www.w3.org/2000/svg">
<path d="M83.5608 151.175C64.9203 151.175 51.1007 155.357 42.1018 163.72C33.3172 171.868 28.9249 183.233 28.9249 197.814C28.9249 207.464 31.2817 214.969 35.9954 220.33C40.7091 225.691 45.8513 228.371 51.4221 228.371C56.5643 228.371 61.0637 226.87 64.9203 223.868C68.9913 220.866 72.4194 217.542 75.2048 213.897C78.4186 209.823 81.204 204.998 83.5608 199.423V151.175ZM59.4567 82.0206C53.029 82.0206 47.6725 84.2722 43.3874 88.7753C39.1022 93.0639 36.9596 98.8536 36.9596 106.144C36.9596 107.86 36.9596 109.361 36.9596 110.647C37.1739 111.934 37.3881 113.113 37.6024 114.186C37.8166 115.258 38.138 116.33 38.5665 117.402L12.8555 123.835C12.427 123.192 12.1056 122.334 11.8913 121.262C11.6771 120.19 11.4628 119.01 11.2486 117.724C11.2486 116.437 11.2486 114.722 11.2486 112.577C11.2486 108.074 12.3199 103.786 14.4625 99.7113C16.605 95.4227 19.7118 91.6701 23.7827 88.4536C28.0679 85.0227 33.1029 82.3423 38.8879 80.4124C44.8872 78.268 51.7434 77.1959 59.4567 77.1959C74.8834 77.1959 86.989 81.5918 95.7736 90.3835C104.772 99.1753 109.272 110.862 109.272 125.443V221.938L128.555 226.763V229.979H83.5608V210.68C81.204 215.184 78.2044 219.258 74.562 222.903C71.5624 225.905 67.7057 228.586 62.992 230.944C58.4926 233.518 53.029 234.804 46.6012 234.804C31.1746 234.804 19.4975 231.159 11.57 223.868C3.85665 216.577 0 206.821 0 194.598C0 188.594 1.60694 182.59 4.82082 176.586C8.24895 170.581 13.284 165.221 19.926 160.503C26.7823 155.786 35.4598 152.033 45.9585 149.245C56.4571 146.243 68.9912 144.742 83.5608 144.742V125.443C83.5608 109.361 81.0969 98.1031 76.1689 91.6701C71.4552 85.2371 65.8845 82.0206 59.4567 82.0206Z" fill="white"/>
<path d="M192.782 221.938L212.066 226.763V229.979H147.788V226.763L167.071 221.938V90.0619L147.788 85.2371V82.0206H192.782V120.619C195.568 112.685 198.889 105.501 202.745 99.0681C206.174 93.4928 210.352 88.4536 215.28 83.9505C220.208 79.4474 226.1 77.1959 232.956 77.1959C235.313 77.1959 237.562 77.4103 239.705 77.8392C241.848 78.0536 243.776 78.3753 245.49 78.8041C247.418 79.4474 249.132 79.9835 250.632 80.4124L240.991 104.536C239.705 103.893 238.312 103.142 236.813 102.285C235.527 101.641 233.92 101.105 231.992 100.676C230.278 100.033 228.457 99.7113 226.528 99.7113C220.957 99.7113 216.03 101.212 211.744 104.214C207.459 107.217 203.924 110.54 201.139 114.186C197.71 118.474 194.925 123.299 192.782 128.66V221.938Z" fill="white"/>
<path d="M345.555 82.0206V88.4536H308.595V191.06C308.595 204.14 310.952 213.682 315.666 219.687C320.379 225.476 325.522 228.371 331.092 228.371C338.377 228.371 344.483 225.691 349.411 220.33C354.554 214.755 357.553 206.713 358.41 196.206H363.231C362.374 208.429 358.624 217.971 351.982 224.833C345.555 231.48 337.52 234.804 327.878 234.804C314.166 234.804 303.239 230.837 295.097 222.903C286.955 214.755 282.884 204.247 282.884 191.381V88.4536H255.566V82.0206H282.884V45.0309L308.595 27.3402V82.0206H345.555Z" fill="white"/>
<path d="M397.127 221.938V90.0619L377.844 85.2371V82.0206H422.838V221.938L442.122 226.763V229.979H377.844V226.763L397.127 221.938ZM424.445 45.0309C424.445 49.1052 422.731 52.8577 419.303 56.2887C416.089 59.5052 412.447 61.1134 408.376 61.1134C404.305 61.1134 400.556 59.5052 397.127 56.2887C393.913 52.8577 392.307 49.1052 392.307 45.0309C392.307 40.9567 393.913 37.3113 397.127 34.0948C400.556 30.6639 404.305 28.9485 408.376 28.9485C412.447 28.9485 416.089 30.6639 419.303 34.0948C422.731 37.3113 424.445 40.9567 424.445 45.0309Z" fill="white"/>
<path d="M565.781 32.165C565.781 35.8103 565.138 39.134 563.852 42.1361C562.781 44.9237 561.495 47.3897 559.996 49.534C558.282 51.8928 556.46 54.1443 554.532 56.2887L530.428 46.6392C532.356 44.4948 534.177 42.2433 535.892 39.8845C537.391 37.7402 538.677 35.2742 539.748 32.4866C541.034 29.4845 541.677 26.1608 541.677 22.5155C541.677 16.9402 540.177 12.6516 537.177 9.64948C534.392 6.43298 530.535 4.82474 525.607 4.82474C523.25 4.82474 521.001 5.46804 518.858 6.75465C516.715 7.82681 514.787 9.86392 513.073 12.866C511.573 15.6536 510.288 19.5134 509.216 24.4454C508.359 29.3773 507.931 35.7031 507.931 43.4227V82.0206H552.925V88.4536H507.931V221.938L527.214 226.763V229.979H462.937V226.763L482.22 221.938V88.4536H462.937V82.0206H482.22V43.4227C482.22 30.5567 486.184 20.1567 494.111 12.2227C502.253 4.07423 512.752 0 525.607 0C531.606 0 537.07 0.964949 541.998 2.89485C546.926 4.61031 551.104 6.96908 554.532 9.97114C558.174 12.9732 560.96 16.4041 562.888 20.2639C564.816 24.1237 565.781 28.0907 565.781 32.165Z" fill="white"/>
<path d="M586.696 221.938V90.0619L567.413 85.2371V82.0206H612.407V221.938L631.69 226.763V229.979H567.413V226.763L586.696 221.938ZM614.014 45.0309C614.014 49.1052 612.3 52.8577 608.872 56.2887C605.658 59.5052 602.015 61.1134 597.945 61.1134C593.874 61.1134 590.124 59.5052 586.696 56.2887C583.482 52.8577 581.875 49.1052 581.875 45.0309C581.875 40.9567 583.482 37.3113 586.696 34.0948C590.124 30.6639 593.874 28.9485 597.945 28.9485C602.015 28.9485 605.658 30.6639 608.872 34.0948C612.3 37.3113 614.014 40.9567 614.014 45.0309Z" fill="white"/>
<path d="M716.783 83.6289C712.712 83.6289 708.641 84.9155 704.57 87.4887C700.713 89.8474 697.178 93.8144 693.964 99.3897C690.75 104.965 688.072 112.363 685.93 121.584C684.001 130.804 683.037 142.276 683.037 156C683.037 169.724 684.001 181.196 685.93 190.417C688.072 199.637 690.857 207.142 694.286 212.932C697.714 218.507 701.57 222.474 705.855 224.833C710.355 227.192 715.069 228.371 719.997 228.371C725.567 228.371 730.817 227.299 735.745 225.155C740.673 223.01 745.065 220.115 748.922 216.47C752.778 212.825 755.885 208.429 758.242 203.282C760.813 198.136 762.527 192.561 763.384 186.557H768.205C767.348 193.419 765.419 199.852 762.42 205.856C759.634 211.645 755.992 216.685 751.493 220.973C746.993 225.262 741.744 228.586 735.745 230.944C729.96 233.518 723.639 234.804 716.783 234.804C708.427 234.804 700.392 233.089 692.679 229.658C685.18 226.012 678.538 220.866 672.753 214.219C666.968 207.357 662.361 199.101 658.933 189.452C655.719 179.588 654.112 168.437 654.112 156C654.112 143.563 655.719 132.52 658.933 122.87C662.361 113.006 666.86 104.751 672.431 98.1031C678.002 91.2412 684.323 86.0948 691.393 82.6639C698.464 79.0186 705.856 77.1959 713.569 77.1959C718.711 77.1959 723.21 78.0536 727.067 79.7691C731.138 81.4845 734.566 83.3072 737.352 85.2371C740.565 87.5959 743.351 90.2763 745.708 93.2784C746.565 90.0619 748.279 87.0598 750.85 84.2722C753.635 81.4846 756.206 79.6619 758.563 78.8041H763.384C762.955 81.5918 762.634 84.4866 762.42 87.4887C762.206 90.0619 761.991 92.8495 761.777 95.8516C761.777 98.8536 761.777 101.748 761.777 104.536C761.777 107.753 761.777 111.076 761.777 114.507C761.991 117.724 762.206 120.619 762.42 123.192C762.634 126.194 762.955 129.089 763.384 131.876H758.563C754.492 116.437 748.493 104.536 740.565 96.1732C732.852 87.8103 724.924 83.6289 716.783 83.6289Z" fill="white"/>
<path d="M808.278 221.938V90.0619L788.995 85.2371V82.0206H833.989V221.938L853.272 226.763V229.979H788.995V226.763L808.278 221.938ZM835.596 45.0309C835.596 49.1052 833.882 52.8577 830.454 56.2887C827.24 59.5052 823.597 61.1134 819.526 61.1134C815.455 61.1134 811.706 59.5052 808.278 56.2887C805.064 52.8577 803.457 49.1052 803.457 45.0309C803.457 40.9567 805.064 37.3113 808.278 34.0948C811.706 30.6639 815.455 28.9485 819.526 28.9485C823.597 28.9485 827.24 30.6639 830.454 34.0948C833.882 37.3113 835.596 40.9567 835.596 45.0309Z" fill="white"/>
<path d="M957.648 151.175C939.007 151.175 925.188 155.357 916.189 163.72C907.404 171.868 903.012 183.233 903.012 197.814C903.012 207.464 905.369 214.969 910.082 220.33C914.796 225.691 919.938 228.371 925.509 228.371C930.651 228.371 935.151 226.87 939.007 223.868C943.078 220.866 946.506 217.542 949.292 213.897C952.506 209.823 955.291 204.998 957.648 199.423V151.175ZM933.544 82.0206C927.116 82.0206 921.759 84.2722 917.474 88.7753C913.189 93.0639 911.047 98.8536 911.047 106.144C911.047 107.86 911.047 109.361 911.047 110.647C911.261 111.934 911.475 113.113 911.689 114.186C911.904 115.258 912.225 116.33 912.654 117.402L886.942 123.835C886.514 123.192 886.193 122.334 885.978 121.262C885.764 120.19 885.55 119.01 885.336 117.724C885.336 116.437 885.336 114.722 885.336 112.577C885.336 108.074 886.407 103.786 888.549 99.7113C890.692 95.4227 893.799 91.6701 897.87 88.4536C902.155 85.0227 907.19 82.3423 912.975 80.4124C918.974 78.268 925.83 77.1959 933.544 77.1959C948.97 77.1959 961.076 81.5918 969.86 90.3835C978.859 99.1753 983.359 110.862 983.359 125.443V221.938L1002.64 226.763V229.979H957.648V210.68C955.291 215.184 952.291 219.258 948.649 222.903C945.649 225.905 941.793 228.586 937.079 230.944C932.58 233.518 927.116 234.804 920.688 234.804C905.262 234.804 893.585 231.159 885.657 223.868C877.944 216.577 874.087 206.821 874.087 194.598C874.087 188.594 875.694 182.59 878.908 176.586C882.336 170.581 887.371 165.221 894.013 160.503C900.869 155.786 909.547 152.033 920.045 149.245C930.544 146.243 943.078 144.742 957.648 144.742V125.443C957.648 109.361 955.184 98.1031 950.256 91.6701C945.542 85.2371 939.971 82.0206 933.544 82.0206Z" fill="white"/>
<path d="M1036.41 221.938V12.866L1017.13 8.04123V4.82474H1062.12V221.938L1081.41 226.763V229.979H1017.13V226.763L1036.41 221.938Z" fill="white"/>
<path d="M1172.97 83.6289C1168.04 83.6289 1163.75 84.701 1160.11 86.8454C1156.47 88.7753 1153.47 90.9196 1151.11 93.2784C1148.33 96.066 1145.97 99.2825 1144.04 102.928V199.423C1146.4 204.998 1149.18 209.823 1152.4 213.897C1155.18 217.542 1158.5 220.866 1162.36 223.868C1166.22 226.87 1170.82 228.371 1176.18 228.371C1179.82 228.371 1183.46 227.192 1187.11 224.833C1190.96 222.474 1194.39 218.507 1197.39 212.932C1200.6 207.142 1203.18 199.637 1205.1 190.417C1207.25 181.196 1208.32 169.724 1208.32 156C1208.32 142.276 1207.25 130.804 1205.1 121.584C1203.18 112.363 1200.5 104.965 1197.07 99.3897C1193.86 93.8144 1190.11 89.8474 1185.82 87.4887C1181.75 84.9155 1177.46 83.6289 1172.97 83.6289ZM1177.79 77.1959C1185.5 77.1959 1192.89 79.0186 1199.96 82.6639C1207.03 86.0948 1213.35 91.2412 1218.92 98.1031C1224.49 104.751 1228.89 113.006 1232.1 122.87C1235.53 132.52 1237.24 143.563 1237.24 156C1237.24 168.437 1235.53 179.588 1232.1 189.452C1228.89 199.101 1224.6 207.357 1219.24 214.219C1214.1 220.866 1208.1 226.012 1201.25 229.658C1194.61 233.089 1187.86 234.804 1181 234.804C1174.57 234.804 1169 233.518 1164.29 230.944C1159.57 228.586 1155.72 225.905 1152.72 222.903C1149.08 219.258 1146.18 215.184 1144.04 210.68V229.979H1099.05V226.763L1118.33 221.938V12.866L1099.05 8.04123V4.82474H1144.04V93.2784C1145.97 90.2763 1148.54 87.5959 1151.75 85.2371C1154.54 83.3072 1157.97 81.4845 1162.04 79.7691C1166.32 78.0536 1171.57 77.1959 1177.79 77.1959Z" fill="white"/>
<path d="M1295.05 156C1295.05 169.724 1296.02 181.196 1297.95 190.417C1300.09 199.637 1302.77 207.142 1305.98 212.932C1309.41 218.507 1313.16 222.474 1317.23 224.833C1321.52 227.192 1325.91 228.371 1330.41 228.371C1335.98 228.371 1341.23 227.299 1346.16 225.155C1351.08 223.01 1355.48 220.115 1359.33 216.47C1363.19 212.825 1366.3 208.429 1368.65 203.282C1371.22 198.136 1372.94 192.561 1373.79 186.557H1378.62C1377.76 193.419 1375.83 199.852 1372.83 205.856C1370.05 211.645 1366.4 216.685 1361.9 220.973C1357.4 225.262 1352.15 228.586 1346.16 230.944C1340.37 233.518 1334.05 234.804 1327.19 234.804C1319.05 234.804 1311.34 233.089 1304.05 229.658C1296.77 226.012 1290.23 220.866 1284.45 214.219C1278.88 207.357 1274.38 199.101 1270.95 189.452C1267.74 179.588 1266.13 168.437 1266.13 156C1266.13 143.134 1267.74 131.769 1270.95 121.905C1274.16 112.041 1278.34 103.893 1283.48 97.4598C1288.84 90.8124 1294.95 85.7732 1301.8 82.3423C1308.87 78.9113 1316.27 77.1959 1323.98 77.1959C1331.69 77.1959 1338.98 78.9113 1345.83 82.3423C1352.9 85.7732 1359.01 90.8124 1364.15 97.4598C1369.51 103.893 1373.79 112.041 1377.01 121.905C1380.22 131.769 1381.83 143.134 1381.83 156H1295.05ZM1323.98 82.0206C1320.77 82.0206 1317.55 83.0928 1314.34 85.2371C1311.12 87.167 1308.12 90.7052 1305.34 95.8516C1302.55 100.998 1300.2 107.967 1298.27 116.759C1296.55 125.336 1295.48 136.272 1295.05 149.567H1352.9C1352.48 136.272 1351.3 125.336 1349.37 116.759C1347.66 107.967 1345.41 100.998 1342.62 95.8516C1339.83 90.7052 1336.84 87.167 1333.62 85.2371C1330.41 83.0928 1327.19 82.0206 1323.98 82.0206Z" fill="white"/>
<path d="M1425.32 221.938V90.0619L1406.03 85.2371V82.0206H1451.03V221.938L1470.31 226.763V229.979H1406.03V226.763L1425.32 221.938ZM1452.64 45.0309C1452.64 49.1052 1450.92 52.8577 1447.49 56.2887C1444.28 59.5052 1440.64 61.1134 1436.57 61.1134C1432.49 61.1134 1428.75 59.5052 1425.32 56.2887C1422.1 52.8577 1420.5 49.1052 1420.5 45.0309C1420.5 40.9567 1422.1 37.3113 1425.32 34.0948C1428.75 30.6639 1432.49 28.9485 1436.57 28.9485C1440.64 28.9485 1444.28 30.6639 1447.49 34.0948C1450.92 37.3113 1452.64 40.9567 1452.64 45.0309Z" fill="white"/>
<path d="M1508.8 221.938V90.0619L1489.52 85.2371V82.0206H1534.51V101.32C1536.66 97.0309 1539.55 93.0639 1543.19 89.4186C1546.19 86.4165 1550.05 83.6289 1554.76 81.0557C1559.47 78.4825 1565.05 77.1959 1571.47 77.1959C1577.9 77.1959 1583.79 78.3753 1589.15 80.734C1594.72 83.0928 1599.54 86.4165 1603.61 90.7052C1607.68 94.7794 1610.79 99.8186 1612.93 105.823C1615.29 111.612 1616.47 118.153 1616.47 125.443V221.938L1635.75 226.763V229.979H1573.08V226.763L1590.76 221.938V125.443C1590.76 110.219 1588.29 99.4969 1583.36 93.2784C1578.65 86.8454 1573.08 83.6289 1566.65 83.6289C1561.3 83.6289 1556.69 85.1299 1552.83 88.132C1548.98 91.134 1545.66 94.4577 1542.87 98.1031C1539.66 102.392 1536.87 107.217 1534.51 112.577V221.938L1552.19 226.763V229.979H1489.52V226.763L1508.8 221.938Z" fill="white"/>
<path d="M1714.38 181.732C1718.02 181.732 1721.56 180.874 1724.98 179.159C1728.41 177.229 1731.52 174.227 1734.3 170.153C1737.09 166.078 1739.23 160.932 1740.73 154.713C1742.45 148.28 1743.3 140.668 1743.3 131.876C1743.3 123.085 1742.45 115.579 1740.73 109.361C1739.23 102.928 1737.09 97.7814 1734.3 93.9217C1731.52 89.8474 1728.41 86.8454 1724.98 84.9155C1721.56 82.9856 1718.02 82.0206 1714.38 82.0206C1710.74 82.0206 1707.2 82.9856 1703.77 84.9155C1700.34 86.8454 1697.24 89.8474 1694.45 93.9217C1691.67 97.7814 1689.42 102.928 1687.7 109.361C1686.2 115.579 1685.45 123.085 1685.45 131.876C1685.45 140.668 1686.2 148.28 1687.7 154.713C1689.42 160.932 1691.67 166.078 1694.45 170.153C1697.24 174.227 1700.34 177.229 1703.77 179.159C1707.2 180.874 1710.74 181.732 1714.38 181.732ZM1720.81 305.889C1728.73 305.889 1735.91 304.709 1742.34 302.351C1748.77 300.206 1754.12 297.204 1758.41 293.344C1762.91 289.485 1766.34 284.981 1768.69 279.835C1771.05 274.689 1772.23 269.328 1772.23 263.753C1772.23 243.381 1762.05 233.196 1741.7 233.196H1690.27C1678.06 233.196 1669.06 230.73 1663.28 225.798C1657.71 220.866 1654.92 214.755 1654.92 207.464C1654.92 202.532 1656.1 198.243 1658.46 194.598C1661.03 190.738 1663.81 187.307 1666.81 184.305C1670.45 181.089 1674.53 178.087 1679.03 175.299C1674.74 172.511 1670.99 169.08 1667.78 165.006C1664.78 161.361 1662.1 156.858 1659.74 151.497C1657.6 146.136 1656.53 139.596 1656.53 131.876C1656.53 124.157 1657.92 116.973 1660.71 110.326C1663.71 103.678 1667.78 97.8887 1672.92 92.9567C1678.06 88.0247 1684.17 84.1649 1691.24 81.3773C1698.31 78.5897 1706.02 77.1959 1714.38 77.1959C1718.02 77.1959 1721.56 77.5175 1724.98 78.1608C1728.41 78.8041 1731.52 79.5546 1734.3 80.4124C1737.52 81.2701 1740.52 82.3423 1743.3 83.6289C1745.02 81.2701 1747.05 79.1258 1749.41 77.1959C1751.55 75.4804 1754.23 73.9794 1757.44 72.6928C1760.66 71.4062 1764.51 70.7629 1769.01 70.7629C1776.3 70.7629 1781.98 72.1567 1786.05 74.9443C1790.33 77.5175 1793.65 80.4124 1796.01 83.6289C1798.58 87.4887 1800.3 91.7773 1801.15 96.4949L1777.05 101.32C1776.41 97.0309 1775.44 93.0639 1774.16 89.4186C1773.08 86.4165 1771.59 83.6289 1769.66 81.0557C1767.73 78.4825 1765.37 77.1959 1762.59 77.1959C1760.23 77.1959 1758.09 77.732 1756.16 78.8041C1754.23 79.8763 1752.73 80.9485 1751.66 82.0206C1750.16 83.5217 1748.98 85.1299 1748.12 86.8454C1756.27 91.7773 1762.26 98.1031 1766.12 105.823C1770.19 113.542 1772.23 122.227 1772.23 131.876C1772.23 139.596 1770.73 146.779 1767.73 153.427C1764.94 160.074 1760.98 165.864 1755.84 170.796C1750.69 175.728 1744.59 179.588 1737.52 182.375C1730.45 185.163 1722.73 186.557 1714.38 186.557C1709.88 186.557 1705.81 186.235 1702.17 185.592C1698.52 184.734 1695.31 183.769 1692.52 182.697C1689.31 181.625 1686.42 180.231 1683.85 178.515C1680.85 180.445 1678.17 182.482 1675.81 184.627C1673.67 186.342 1671.74 188.379 1670.03 190.738C1668.53 193.097 1667.78 195.456 1667.78 197.814C1667.78 201.031 1669.28 203.711 1672.28 205.856C1675.28 207.786 1681.28 208.751 1690.27 208.751H1741.7C1754.55 208.751 1764.94 212.932 1772.87 221.295C1781.01 229.443 1785.08 240.379 1785.08 254.103C1785.08 262.252 1783.48 269.757 1780.26 276.619C1777.26 283.695 1772.98 289.806 1767.41 294.953C1761.84 300.313 1755.09 304.495 1747.16 307.497C1739.23 310.499 1730.45 312 1720.81 312C1708.81 312 1698.31 310.606 1689.31 307.819C1680.53 305.245 1673.24 301.6 1667.46 296.883C1661.67 292.379 1657.28 287.019 1654.28 280.8C1651.49 274.581 1650.1 267.827 1650.1 260.536C1650.1 257.748 1650.42 255.175 1651.06 252.817C1651.71 250.672 1652.46 248.85 1653.31 247.348C1654.17 245.633 1655.24 244.132 1656.53 242.845L1680.63 252.495C1679.99 253.996 1679.45 255.604 1679.03 257.32C1677.95 260.536 1677.42 263.753 1677.42 266.969C1677.42 278.334 1681.17 287.662 1688.67 294.953C1696.38 302.243 1707.09 305.889 1720.81 305.889Z" fill="white"/>
<path d="M1902.5 223.546C1902.5 214.54 1904.32 206.606 1907.97 199.744C1911.61 192.668 1916.22 186.664 1921.79 181.732H1925C1924.57 184.52 1924.25 187.307 1924.04 190.095C1923.82 192.454 1923.61 195.134 1923.39 198.136C1923.39 200.924 1923.39 203.497 1923.39 205.856C1923.39 209.501 1923.39 212.825 1923.39 215.827C1923.61 218.614 1923.82 221.08 1924.04 223.225C1924.25 225.584 1924.57 227.835 1925 229.979H1810.91L1891.25 88.4536H1839.83C1839.83 97.4598 1838.01 105.501 1834.37 112.577C1830.73 119.439 1826.12 125.336 1820.55 130.268H1817.34C1817.55 127.48 1817.76 124.693 1817.98 121.905C1818.19 119.546 1818.41 116.973 1818.62 114.186C1818.83 111.184 1818.94 108.503 1818.94 106.144C1818.94 102.499 1818.83 99.2825 1818.62 96.4949C1818.41 93.4928 1818.19 90.9196 1817.98 88.7753C1817.76 86.4165 1817.55 84.165 1817.34 82.0206H1925L1844.65 223.546H1902.5Z" fill="white"/>
</svg>
